<?xml version="1.0" encoding="utf-8"?>
<!-- Generator: Adobe Illustrator 17.0.0, SVG Export Plug-In . SVG Version: 6.00 Build 0)  -->
<!DOCTYPE svg PUBLIC "-//W3C//DTD SVG 1.1//EN" "http://www.w3.org/Graphics/SVG/1.1/DTD/svg11.dtd">
<svg version="1.1" id="Layer_1" xmlns="http://www.w3.org/2000/svg" xmlns:xlink="http://www.w3.org/1999/xlink" x="0px" y="0px"
	 width="871.034px" height="255.172px" viewBox="0 0 871.034 255.172" enable-background="new 0 0 871.034 255.172"
	 xml:space="preserve">
<path fill="#3399FF" d="M234.146,207.882c-16.808-16.804-25.205-37.346-25.205-61.65c0-24.067,8.516-44.619,25.543-61.658
	c16.804-17.029,37.352-25.545,61.656-25.545h43.59c11.808,0,22.025-4.192,30.657-12.599c8.629-8.625,12.945-18.949,12.945-30.987
	v130.789c0,24.305-8.632,44.955-25.888,61.994c-16.804,16.804-37.243,25.201-61.305,25.201
	C271.836,233.427,251.173,224.912,234.146,207.882z"/>
<path fill="#3399FF" d="M452.977,132.029c0-26.53,7.293-51.35,19.95-72.6c-20.467,1.848-38.062,10.229-52.777,25.145
	c-17.029,17.039-25.543,37.591-25.543,61.658c0,24.305,8.395,44.847,25.199,61.65c17.033,17.029,37.691,25.545,61.994,25.545h13.768
	C469.295,207.638,452.977,171.746,452.977,132.029z"/>
<path fill="#003366" d="M568.992,146.232c0-24.067-8.513-44.503-25.542-61.314c-17.035-17.246-37.587-25.889-61.65-25.889
	c-3.017,0-5.969,0.137-8.873,0.4c-12.657,21.249-19.95,46.069-19.95,72.6c0,39.717,16.318,75.609,42.591,101.399h73.425V146.232z"/>
<path fill="#3399FF" d="M819.368,84.918c-17.029-17.246-37.574-25.889-61.642-25.889h-87.194c-1.192,0-2.333,0.119-3.506,0.163
	c4.66,6.695,8.758,13.806,12.227,21.269c38.946,17.528,66.082,56.65,66.082,102.142c0,16.014-3.387,31.231-9.449,45.01
	c3.125-1.841,6.1-4.069,8.898-6.786c8.622-8.622,12.942-18.959,12.942-30.997c0,12.038,4.195,22.375,12.6,30.997
	c8.634,8.406,18.959,12.602,30.989,12.602h43.606v-87.195C844.922,122.165,836.406,101.729,819.368,84.918z"/>
<path fill="#0066CC" d="M633.347,70.616c16.369,0,31.894,3.532,45.906,9.845c-3.469-7.463-7.566-14.573-12.227-21.269
	c-15.037,0.526-28.598,4.412-40.671,11.658C628.669,70.705,630.996,70.616,633.347,70.616z"/>
<path fill="#0066CC" d="M679.253,80.461c8.448,18.181,13.193,38.426,13.193,59.793c0,24.91-6.427,48.308-17.688,68.662
	c2.05,4.275,4.813,8.251,8.374,11.91c8.628,8.406,18.958,12.602,30.997,12.602c7.979,0,15.226-1.967,21.757-5.816
	c6.062-13.778,9.449-28.996,9.449-45.01C745.335,137.111,718.199,97.989,679.253,80.461z"/>
<path fill="#003366" d="M626.355,70.85c-6.206,3.724-12.059,8.234-17.477,13.724c-17.025,17.039-25.545,37.591-25.545,61.658v87.195
	h43.601c11.804,0,22.021-4.195,30.653-12.602c8.624-8.622,12.945-18.959,12.945-30.997c0,6.939,1.44,13.288,4.226,19.087
	c11.262-20.355,17.688-43.752,17.688-68.662c0-21.367-4.745-41.612-13.193-59.793c-14.013-6.312-29.537-9.845-45.906-9.845
	C630.996,70.616,628.669,70.705,626.355,70.85z"/>
<path fill="#3399FF" d="M198.57,146.432c0-24.067-8.521-44.503-25.544-61.315c-16.394-16.604-36.088-25.146-59.001-25.761
	c3.417,6.458,6.39,13.188,8.873,20.154c36.184,26.15,59.752,68.68,59.752,116.732c0,12.936-1.735,25.453-4.932,37.383h20.853
	V146.432z"/>
<path fill="#0066CC" d="M90.062,61.749c11.765,4.502,22.786,10.497,32.835,17.763c-2.483-6.966-5.456-13.696-8.873-20.154
	c-0.893-0.026-1.752-0.128-2.653-0.128C103.898,59.229,96.823,60.135,90.062,61.749z"/>
<path fill="#0066CC" d="M122.897,79.511c5.755,16.15,8.919,33.532,8.919,51.658c0,38.615-14.263,73.879-37.766,100.889
	c5.554,1.033,11.324,1.568,17.32,1.568h66.346c3.197-11.93,4.932-24.447,4.932-37.383
	C182.65,148.191,159.081,105.662,122.897,79.511z"/>
<path fill="#003366" d="M49.73,84.774c-17.039,17.038-25.554,37.591-25.554,61.658c0,24.304,8.401,44.847,25.21,61.65
	c12.827,12.826,27.719,20.806,44.664,23.976c23.503-27.01,37.766-62.273,37.766-100.889c0-18.126-3.164-35.508-8.919-51.658
	c-10.049-7.266-21.07-13.261-32.835-17.763C74.831,65.371,61.361,72.98,49.73,84.774z"/>
</svg>
